{"asset":{"version":"2.0","generator":"Blockbench 4.9.4 glTF exporter"},"scenes":[{"nodes":[2],"name":"blockbench_export"}],"scene":0,"nodes":[{"rotation":[0,-0.7071067811865475,0,0.7071067811865476],"translation":[0,-0.375,0],"name":"Dice","mesh":0},{"translation":[0,0.375,0],"name":"Dice","children":[0]},{"children":[1]}],"bufferViews":[{"buffer":0,"byteOffset":0,"byteLength":288,"target":34962,"byteStride":12},{"buffer":0,"byteOffset":288,"byteLength":288,"target":34962,"byteStride":12},{"buffer":0,"byteOffset":576,"byteLength":192,"target":34962,"byteStride":8},{"buffer":0,"byteOffset":768,"byteLength":72,"target":34963},{"buffer":0,"byteOffset":840,"byteLength":24},{"buffer":0,"byteOffset":864,"byteLength":96},{"buffer":0,"byteOffset":960,"byteLength":16},{"buffer":0,"byteOffset":976,"byteLength":48},{"buffer":0,"byteOffset":1024,"byteLength":24},{"buffer":0,"byteOffset":1048,"byteLength":96},{"buffer":0,"byteOffset":1144,"byteLength":16},{"buffer":0,"byteOffset":1160,"byteLength":48},{"buffer":0,"byteOffset":1208,"byteLength":24},{"buffer":0,"byteOffset":1232,"byteLength":96},{"buffer":0,"byteOffset":1328,"byteLength":16},{"buffer":0,"byteOffset":1344,"byteLength":48},{"buffer":0,"byteOffset":1392,"byteLength":24},{"buffer":0,"byteOffset":1416,"byteLength":96},{"buffer":0,"byteOffset":1512,"byteLength":16},{"buffer":0,"byteOffset":1528,"byteLength":48},{"buffer":0,"byteOffset":1576,"byteLength":24},{"buffer":0,"byteOffset":1600,"byteLength":96},{"buffer":0,"byteOffset":1696,"byteLength":16},{"buffer":0,"byteOffset":1712,"byteLength":48},{"buffer":0,"byteOffset":1760,"byteLength":24},{"buffer":0,"byteOffset":1784,"byteLength":96},{"buffer":0,"byteOffset":1880,"byteLength":16},{"buffer":0,"byteOffset":1896,"byteLength":48}],"buffers":[{"byteLength":1944,"uri":"data:application/octet-stream;base64,"}],"accessors":[{"bufferView":0,"componentType":5126,"count":24,"max":[0.375,0.75,0.375],"min":[-0.375,0,-0.375],"type":"VEC3"},{"bufferView":1,"componentType":5126,"count":24,"max":[1,1,1],"min":[-1,-1,-1],"type":"VEC3"},{"bufferView":2,"componentType":5126,"count":24,"max":[0.5625,0.5625],"min":[0,0],"type":"VEC2"},{"bufferView":3,"componentType":5123,"count":36,"max":[23],"min":[0],"type":"SCALAR"},{"bufferView":4,"componentType":5126,"count":6,"max":[1],"min":[0],"type":"SCALAR"},{"bufferView":5,"componentType":5126,"count":6,"max":[0.7071067690849304,0.6407288908958435,0.4619397521018982,1],"min":[-0.4619397521018982,-0.22499404847621918,-0.7071067690849304,-0.7463110089302063],"type":"VEC4"},{"bufferView":6,"componentType":5126,"count":4,"max":[1],"min":[0],"type":"SCALAR"},{"bufferView":7,"componentType":5126,"count":4,"max":[0,1.875,1.5],"min":[0,0.375,0],"type":"VEC3"},{"bufferView":8,"componentType":5126,"count":6,"max":[1],"min":[0],"type":"SCALAR"},{"bufferView":9,"componentType":5126,"count":6,"max":[0.5,0.5027791857719421,0.5431836843490601,0.7786785364151001],"min":[-0.5431836843490601,-0.7071067690849304,-0.5,-0.8446232080459595],"type":"VEC4"},{"bufferView":10,"componentType":5126,"count":4,"max":[1],"min":[0],"type":"SCALAR"},{"bufferView":11,"componentType":5126,"count":4,"max":[0,1.875,1.5],"min":[0,0.375,0],"type":"VEC3"},{"bufferView":12,"componentType":5126,"count":6,"max":[1],"min":[0],"type":"SCALAR"},{"bufferView":13,"componentType":5126,"count":6,"max":[0.5,0.5,0.5431836843490601,0.7786785364151001],"min":[-0.7071067690849304,-0.4619397521018982,-0.5,-0.8446232080459595],"type":"VEC4"},{"bufferView":14,"componentType":5126,"count":4,"max":[1],"min":[0],"type":"SCALAR"},{"bufferView":15,"componentType":5126,"count":4,"max":[0,1.875,1.5],"min":[0,0.375,0],"type":"VEC3"},{"bufferView":16,"componentType":5126,"count":6,"max":[1],"min":[0],"type":"SCALAR"},{"bufferView":17,"componentType":5126,"count":6,"max":[0.7786785364151001,0.5431836843490601,0.4619397521018982,0.7071067690849304],"min":[-0.8446232080459595,-0.5,-0.5,-0.5],"type":"VEC4"},{"bufferView":18,"componentType":5126,"count":4,"max":[1],"min":[0],"type":"SCALAR"},{"bufferView":19,"componentType":5126,"count":4,"max":[0,1.875,1.5],"min":[0,0.375,0],"type":"VEC3"},{"bufferView":20,"componentType":5126,"count":6,"max":[1],"min":[0],"type":"SCALAR"},{"bufferView":21,"componentType":5126,"count":6,"max":[0.5,0.7382740378379822,0.4619397521018982,0.7071067690849304],"min":[-0.4619397521018982,-0.8209688067436218,-0.5,-0.5],"type":"VEC4"},{"bufferView":22,"componentType":5126,"count":4,"max":[1],"min":[0],"type":"SCALAR"},{"bufferView":23,"componentType":5126,"count":4,"max":[0,1.875,1.5],"min":[0,0.375,0],"type":"VEC3"},{"bufferView":24,"componentType":5126,"count":6,"max":[1],"min":[0],"type":"SCALAR"},{"bufferView":25,"componentType":5126,"count":6,"max":[0.22499404847621918,0.9360311627388,0.6407288908958435,0.7071067690849304],"min":[-0.6407288908958435,-1,-0.22499404847621918,-0.4619397521018982],"type":"VEC4"},{"bufferView":26,"componentType":5126,"count":4,"max":[1],"min":[0],"type":"SCALAR"},{"bufferView":27,"componentType":5126,"count":4,"max":[0,1.875,1.5],"min":[0,0.375,0],"type":"VEC3"}],"materials":[{"pbrMetallicRoughness":{"metallicFactor":0,"roughnessFactor":1,"baseColorTexture":{"index":0}},"alphaMode":"MASK","alphaCutoff":0.05,"doubleSided":true}],"textures":[{"sampler":0,"source":0}],"samplers":[{"magFilter":9728,"minFilter":9728,"wrapS":33071,"wrapT":33071}],"images":[{"mimeType":"image/png","uri":"data:image/png;base64,"}],"meshes":[{"primitives":[{"mode":4,"attributes":{"POSITION":0,"NORMAL":1,"TEXCOORD_0":2},"indices":3,"material":0}]}],"animations":[{"name":"1","samplers":[{"input":4,"output":5,"interpolation":"LINEAR"},{"input":6,"output":7,"interpolation":"LINEAR"}],"channels":[{"sampler":0,"target":{"node":1,"path":"rotation"}},{"sampler":1,"target":{"node":1,"path":"translation"}}]},{"name":"2","samplers":[{"input":8,"output":9,"interpolation":"LINEAR"},{"input":10,"output":11,"interpolation":"LINEAR"}],"channels":[{"sampler":0,"target":{"node":1,"path":"rotation"}},{"sampler":1,"target":{"node":1,"path":"translation"}}]},{"name":"3","samplers":[{"input":12,"output":13,"interpolation":"LINEAR"},{"input":14,"output":15,"interpolation":"LINEAR"}],"channels":[{"sampler":0,"target":{"node":1,"path":"rotation"}},{"sampler":1,"target":{"node":1,"path":"translation"}}]},{"name":"4","samplers":[{"input":16,"output":17,"interpolation":"LINEAR"},{"input":18,"output":19,"interpolation":"LINEAR"}],"channels":[{"sampler":0,"target":{"node":1,"path":"rotation"}},{"sampler":1,"target":{"node":1,"path":"translation"}}]},{"name":"5","samplers":[{"input":20,"output":21,"interpolation":"LINEAR"},{"input":22,"output":23,"interpolation":"LINEAR"}],"channels":[{"sampler":0,"target":{"node":1,"path":"rotation"}},{"sampler":1,"target":{"node":1,"path":"translation"}}]},{"name":"6","samplers":[{"input":24,"output":25,"interpolation":"LINEAR"},{"input":26,"output":27,"interpolation":"LINEAR"}],"channels":[{"sampler":0,"target":{"node":1,"path":"rotation"}},{"sampler":1,"target":{"node":1,"path":"translation"}}]}]}