{
  "asset": { "version": "2.0", "generator": "Blockbench 4.8.3 glTF exporter" },
  "scenes": [{ "nodes": [4], "name": "blockbench_export" }],
  "scene": 0,
  "nodes": [
    { "name": "Trunk", "mesh": 0 },
    { "name": "BottomLeaves", "mesh": 1 },
    { "name": "CenterLeaves", "mesh": 2 },
    { "name": "TopLeaves", "mesh": 3 },
    { "children": [0, 1, 2, 3] }
  ],
  "bufferViews": [
    {
      "buffer": 0,
      "byteOffset": 0,
      "byteLength": 1056,
      "target": 34962,
      "byteStride": 12
    },
    {
      "buffer": 0,
      "byteOffset": 1056,
      "byteLength": 1056,
      "target": 34962,
      "byteStride": 12
    },
    {
      "buffer": 0,
      "byteOffset": 2112,
      "byteLength": 704,
      "target": 34962,
      "byteStride": 8
    },
    { "buffer": 0, "byteOffset": 2816, "byteLength": 240, "target": 34963 },
    {
      "buffer": 0,
      "byteOffset": 3056,
      "byteLength": 672,
      "target": 34962,
      "byteStride": 12
    },
    {
      "buffer": 0,
      "byteOffset": 3728,
      "byteLength": 672,
      "target": 34962,
      "byteStride": 12
    },
    {
      "buffer": 0,
      "byteOffset": 4400,
      "byteLength": 448,
      "target": 34962,
      "byteStride": 8
    },
    { "buffer": 0, "byteOffset": 4848, "byteLength": 144, "target": 34963 },
    {
      "buffer": 0,
      "byteOffset": 4992,
      "byteLength": 672,
      "target": 34962,
      "byteStride": 12
    },
    {
      "buffer": 0,
      "byteOffset": 5664,
      "byteLength": 672,
      "target": 34962,
      "byteStride": 12
    },
    {
      "buffer": 0,
      "byteOffset": 6336,
      "byteLength": 448,
      "target": 34962,
      "byteStride": 8
    },
    { "buffer": 0, "byteOffset": 6784, "byteLength": 144, "target": 34963 },
    {
      "buffer": 0,
      "byteOffset": 6928,
      "byteLength": 576,
      "target": 34962,
      "byteStride": 12
    },
    {
      "buffer": 0,
      "byteOffset": 7504,
      "byteLength": 576,
      "target": 34962,
      "byteStride": 12
    },
    {
      "buffer": 0,
      "byteOffset": 8080,
      "byteLength": 384,
      "target": 34962,
      "byteStride": 8
    },
    { "buffer": 0, "byteOffset": 8464, "byteLength": 96, "target": 34963 }
  ],
  "buffers": [
    {
      "byteLength": 8560,
      "uri": "data:application/octet-stream;base64,"
    }
  ],
  "accessors": [
    {
      "bufferView": 0,
      "componentType": 5126,
      "count": 88,
      "max": [0.22499999403953552, 0.4156250059604645, 0.22499999403953552],
      "min": [
        -0.22499999403953552, 0.0031250000465661287, -0.22499999403953552
      ],
      "type": "VEC3"
    },
    {
      "bufferView": 1,
      "componentType": 5126,
      "count": 88,
      "max": [0.9841383695602417, 0.6742693781852722, 0.9942624568939209],
      "min": [-0.9942511320114136, -1, -0.9931177496910095],
      "type": "VEC3"
    },
    {
      "bufferView": 2,
      "componentType": 5126,
      "count": 88,
      "max": [0.984375, 0.109375],
      "min": [0.015625, 0.015625],
      "type": "VEC2"
    },
    {
      "bufferView": 3,
      "componentType": 5123,
      "count": 120,
      "max": [87],
      "min": [0],
      "type": "SCALAR"
    },
    {
      "bufferView": 4,
      "componentType": 5126,
      "count": 56,
      "max": [0.6499999761581421, 0.9833696484565735, 0.671875],
      "min": [-0.653124988079071, 0.3770134150981903, -0.668749988079071],
      "type": "VEC3"
    },
    {
      "bufferView": 5,
      "componentType": 5126,
      "count": 56,
      "max": [0.8699563145637512, 0.534467875957489, 0.8472685813903809],
      "min": [-0.8785680532455444, -0.9995002150535583, -0.872292160987854],
      "type": "VEC3"
    },
    {
      "bufferView": 6,
      "componentType": 5126,
      "count": 56,
      "max": [0.984375, 0.171875],
      "min": [0.015625, 0.140625],
      "type": "VEC2"
    },
    {
      "bufferView": 7,
      "componentType": 5123,
      "count": 72,
      "max": [55],
      "min": [0],
      "type": "SCALAR"
    },
    {
      "bufferView": 8,
      "componentType": 5126,
      "count": 56,
      "max": [0.5562499761581421, 1.8312499523162842, 0.6031249761581421],
      "min": [-0.559374988079071, 0.9312499761581421, -0.606249988079071],
      "type": "VEC3"
    },
    {
      "bufferView": 9,
      "componentType": 5126,
      "count": 56,
      "max": [0.9268777966499329, 0.41018643975257874, 0.9243565797805786],
      "min": [-0.9357932209968567, -1, -0.9066998362541199],
      "type": "VEC3"
    },
    {
      "bufferView": 10,
      "componentType": 5126,
      "count": 56,
      "max": [0.984375, 0.109375],
      "min": [0.015625, 0.078125],
      "type": "VEC2"
    },
    {
      "bufferView": 11,
      "componentType": 5123,
      "count": 72,
      "max": [55],
      "min": [0],
      "type": "SCALAR"
    },
    {
      "bufferView": 12,
      "componentType": 5126,
      "count": 48,
      "max": [0.5093749761581421, 2.953125, 0.512499988079071],
      "min": [-0.512499988079071, 1.7625000476837158, -0.5093749761581421],
      "type": "VEC3"
    },
    {
      "bufferView": 13,
      "componentType": 5126,
      "count": 48,
      "max": [0.9112063050270081, 0.41004282236099243, 0.9141259789466858],
      "min": [-0.9112437963485718, -0.9988544583320618, -0.9122021794319153],
      "type": "VEC3"
    },
    {
      "bufferView": 14,
      "componentType": 5126,
      "count": 48,
      "max": [0.984375, 0.046875],
      "min": [0.015625, 0.015625],
      "type": "VEC2"
    },
    {
      "bufferView": 15,
      "componentType": 5123,
      "count": 48,
      "max": [47],
      "min": [0],
      "type": "SCALAR"
    }
  ],
  "materials": [
    {
      "pbrMetallicRoughness": {
        "metallicFactor": 0,
        "roughnessFactor": 1,
        "baseColorTexture": { "index": 0 }
      },
      "alphaMode": "MASK",
      "alphaCutoff": 0.05,
      "doubleSided": true
    },
    {
      "pbrMetallicRoughness": {
        "metallicFactor": 0,
        "roughnessFactor": 1,
        "baseColorTexture": { "index": 1 }
      },
      "alphaMode": "MASK",
      "alphaCutoff": 0.05,
      "doubleSided": true
    }
  ],
  "textures": [
    { "sampler": 0, "source": 0, "name": "Trunk.png" },
    { "sampler": 1, "source": 1, "name": "Leaves.png" }
  ],
  "samplers": [
    { "magFilter": 9728, "minFilter": 9728, "wrapS": 33071, "wrapT": 33071 },
    { "magFilter": 9728, "minFilter": 9728, "wrapS": 33071, "wrapT": 33071 }
  ],
  "images": [
    {
      "mimeType": "image/png",
      "uri": "data:image/png;base64,"
    },
    {
      "mimeType": "image/png",
      "uri": "data:image/png;base64,"
    }
  ],
  "meshes": [
    {
      "primitives": [
        {
          "mode": 4,
          "attributes": { "POSITION": 0, "NORMAL": 1, "TEXCOORD_0": 2 },
          "indices": 3,
          "material": 0
        }
      ]
    },
    {
      "primitives": [
        {
          "mode": 4,
          "attributes": { "POSITION": 4, "NORMAL": 5, "TEXCOORD_0": 6 },
          "indices": 7,
          "material": 1
        }
      ]
    },
    {
      "primitives": [
        {
          "mode": 4,
          "attributes": { "POSITION": 8, "NORMAL": 9, "TEXCOORD_0": 10 },
          "indices": 11,
          "material": 1
        }
      ]
    },
    {
      "primitives": [
        {
          "mode": 4,
          "attributes": { "POSITION": 12, "NORMAL": 13, "TEXCOORD_0": 14 },
          "indices": 15,
          "material": 1
        }
      ]
    }
  ]
}
