{"asset":{"version":"2.0","generator":"Blockbench 4.8.3 glTF exporter"},"scenes":[{"nodes":[1],"name":"blockbench_export"}],"scene":0,"nodes":[{"name":"sphere","mesh":0},{"children":[0]}],"bufferViews":[{"buffer":0,"byteOffset":0,"byteLength":1992,"target":34962,"byteStride":12},{"buffer":0,"byteOffset":1992,"byteLength":1992,"target":34962,"byteStride":12},{"buffer":0,"byteOffset":3984,"byteLength":1328,"target":34962,"byteStride":8},{"buffer":0,"byteOffset":5312,"byteLength":468,"target":34963}],"buffers":[{"byteLength":5780,"uri":"data:application/octet-stream;base64,"}],"accessors":[{"bufferView":0,"componentType":5126,"count":166,"max":[0.35624998807907104,0.5184428095817566,0.3284551501274109],"min":[-0.36250001192092896,0.0031250000465661287,-0.3409551680088043],"type":"VEC3"},{"bufferView":1,"componentType":5126,"count":166,"max":[0.9622546434402466,0.9883954524993896,0.9767354130744934],"min":[-0.9683908224105835,-0.9999992251396179,-0.9993011951446533],"type":"VEC3"},{"bufferView":2,"componentType":5126,"count":166,"max":[0.1931374967098236,0.193137526512146],"min":[0,0],"type":"VEC2"},{"bufferView":3,"componentType":5123,"count":234,"max":[165],"min":[0],"type":"SCALAR"}],"materials":[{"pbrMetallicRoughness":{"metallicFactor":0,"roughnessFactor":1,"baseColorTexture":{"index":0}},"alphaMode":"MASK","alphaCutoff":0.05,"doubleSided":true}],"textures":[{"sampler":0,"source":0,"name":"Stone.png"}],"samplers":[{"magFilter":9728,"minFilter":9728,"wrapS":33071,"wrapT":33071}],"images":[{"mimeType":"image/png","uri":"data:image/png;base64,"}],"meshes":[{"primitives":[{"mode":4,"attributes":{"POSITION":0,"NORMAL":1,"TEXCOORD_0":2},"indices":3,"material":0}]}]}