{"asset":{"version":"2.0","generator":"Blockbench 4.8.3 glTF exporter"},"scenes":[{"nodes":[4],"name":"blockbench_export"}],"scene":0,"nodes":[{"name":"Trunk","mesh":0},{"name":"Leaves","mesh":1},{"rotation":[0,0,-0.45204554617671966,0.8919948565893142],"translation":[0.0310673695220908,0.14659576970004984,5.115210249675201e-19],"name":"Branch","mesh":2},{"name":"Leaves2","mesh":3},{"children":[0,1,2,3]}],"bufferViews":[{"buffer":0,"byteOffset":0,"byteLength":1092,"target":34962,"byteStride":12},{"buffer":0,"byteOffset":1092,"byteLength":1092,"target":34962,"byteStride":12},{"buffer":0,"byteOffset":2184,"byteLength":728,"target":34962,"byteStride":8},{"buffer":0,"byteOffset":2912,"byteLength":248,"target":34963},{"buffer":0,"byteOffset":3160,"byteLength":1968,"target":34962,"byteStride":12},{"buffer":0,"byteOffset":5128,"byteLength":1968,"target":34962,"byteStride":12},{"buffer":0,"byteOffset":7096,"byteLength":1312,"target":34962,"byteStride":8},{"buffer":0,"byteOffset":8408,"byteLength":456,"target":34963},{"buffer":0,"byteOffset":8864,"byteLength":1200,"target":34962,"byteStride":12},{"buffer":0,"byteOffset":10064,"byteLength":1200,"target":34962,"byteStride":12},{"buffer":0,"byteOffset":11264,"byteLength":800,"target":34962,"byteStride":8},{"buffer":0,"byteOffset":12064,"byteLength":300,"target":34963},{"buffer":0,"byteOffset":12364,"byteLength":816,"target":34962,"byteStride":12},{"buffer":0,"byteOffset":13180,"byteLength":816,"target":34962,"byteStride":12},{"buffer":0,"byteOffset":13996,"byteLength":544,"target":34962,"byteStride":8},{"buffer":0,"byteOffset":14540,"byteLength":168,"target":34963}],"buffers":[{"byteLength":14708,"uri":"data:application/octet-stream;base64,"}],"accessors":[{"bufferView":0,"componentType":5126,"count":91,"max":[0.12343750149011612,0.7164062261581421,0.11484374850988388],"min":[-0.11406250298023224,-0.0023437500931322575,-0.11640624701976776],"type":"VEC3"},{"bufferView":1,"componentType":5126,"count":91,"max":[0.9948022365570068,0.6896929740905762,0.9984109997749329],"min":[-0.9874708652496338,-1,-0.9694219827651978],"type":"VEC3"},{"bufferView":2,"componentType":5126,"count":91,"max":[0.06764918565750122,0.25],"min":[0,0],"type":"VEC2"},{"bufferView":3,"componentType":5123,"count":123,"max":[90],"min":[0],"type":"SCALAR"},{"bufferView":4,"componentType":5126,"count":164,"max":[0.46562498807907104,1.8754364252090454,0.621874988079071],"min":[-0.734375,0.6647364497184753,-0.628125011920929],"type":"VEC3"},{"bufferView":5,"componentType":5126,"count":164,"max":[0.9697277545928955,0.9053729176521301,0.9205961227416992],"min":[-0.9378311038017273,-0.9876888394355774,-0.9504234790802002],"type":"VEC3"},{"bufferView":6,"componentType":5126,"count":164,"max":[0.12943750619888306,0.1195874810218811],"min":[0,0],"type":"VEC2"},{"bufferView":7,"componentType":5123,"count":228,"max":[163],"min":[0],"type":"SCALAR"},{"bufferView":8,"componentType":5126,"count":100,"max":[-0.2920379042625427,0.5646129250526428,0.02890625037252903],"min":[-0.36148789525032043,0.18266290426254272,-0.02734375],"type":"VEC3"},{"bufferView":9,"componentType":5126,"count":100,"max":[0.9997537732124329,0.27578601241111755,0.998561441898346],"min":[-0.9900462031364441,-0.3800804913043976,-0.9992518424987793],"type":"VEC3"},{"bufferView":10,"componentType":5126,"count":100,"max":[0.06250525265932083,0.06250524520874023],"min":[0,0],"type":"VEC2"},{"bufferView":11,"componentType":5123,"count":150,"max":[99],"min":[0],"type":"SCALAR"},{"bufferView":12,"componentType":5126,"count":68,"max":[0.8081926107406616,1.502343773841858,0.390625],"min":[0.036342598497867584,0.74609375,-0.3843750059604645],"type":"VEC3"},{"bufferView":13,"componentType":5126,"count":68,"max":[0.8695974349975586,0.921271026134491,0.9090049862861633],"min":[-0.4523985981941223,-0.9686704874038696,-0.9804680943489075],"type":"VEC3"},{"bufferView":14,"componentType":5126,"count":68,"max":[0.07175000011920929,0.07098126411437988],"min":[0,0],"type":"VEC2"},{"bufferView":15,"componentType":5123,"count":84,"max":[67],"min":[0],"type":"SCALAR"}],"materials":[{"pbrMetallicRoughness":{"metallicFactor":0,"roughnessFactor":1,"baseColorTexture":{"index":0}},"alphaMode":"MASK","alphaCutoff":0.05,"doubleSided":true},{"pbrMetallicRoughness":{"metallicFactor":0,"roughnessFactor":1,"baseColorTexture":{"index":1}},"alphaMode":"MASK","alphaCutoff":0.05,"doubleSided":true}],"textures":[{"sampler":0,"source":0,"name":"Trunk.png"},{"sampler":1,"source":1,"name":"Leaves.png"}],"samplers":[{"magFilter":9728,"minFilter":9728,"wrapS":33071,"wrapT":33071},{"magFilter":9728,"minFilter":9728,"wrapS":33071,"wrapT":33071}],"images":[{"mimeType":"image/png","uri":"data:image/png;base64,"},{"mimeType":"image/png","uri":"data:image/png;base64,"}],"meshes":[{"primitives":[{"mode":4,"attributes":{"POSITION":0,"NORMAL":1,"TEXCOORD_0":2},"indices":3,"material":0}]},{"primitives":[{"mode":4,"attributes":{"POSITION":4,"NORMAL":5,"TEXCOORD_0":6},"indices":7,"material":1}]},{"primitives":[{"mode":4,"attributes":{"POSITION":8,"NORMAL":9,"TEXCOORD_0":10},"indices":11,"material":0}]},{"primitives":[{"mode":4,"attributes":{"POSITION":12,"NORMAL":13,"TEXCOORD_0":14},"indices":15,"material":1}]}]}